<svg xmlns="http://www.w3.org/2000/svg" viewBox="0 0 100 100" width="100" height="100">
<polygon points="45.27,32.43 45.27,21.31 44.28,20.79 43.16,20.80 43.15,32.20 43.01,32.93 44.27,32.93" fill="#08e0e7" stroke="#000000" stroke-width="0.5" stroke-linejoin="round"/>
<polygon points="56.27,31.50 54.45,39.66 59.67,36.71 63.07,32.50 64.41,28.76 64.41,25.02 63.07,21.28 59.74,16.93 54.45,13.56 56.38,22.25 56.38,30.40" fill="#08e0e7" stroke="#000000" stroke-width="0.5" stroke-linejoin="round"/>
<polygon points="50.81,82.62 50.81,13.81 49.08,13.81 49.08,82.62" fill="#292929" stroke="#000000" stroke-width="0.5" stroke-linejoin="round"/>
<polygon points="43.16,20.80 40.96,20.80 38.57,21.57 38.55,32.16 40.96,32.93 43.01,32.93 43.15,32.20" fill="#292929" stroke="#000000" stroke-width="0.5" stroke-linejoin="round"/>
<polygon points="56.27,31.50 56.38,30.40 54.18,30.40 54.18,32.62 56.02,32.62" fill="#292929" stroke="#000000" stroke-width="0.5" stroke-linejoin="round"/>
<polygon points="56.38,22.25 56.17,21.28 54.18,21.28 54.18,23.35 56.38,23.35" fill="#292929" stroke="#000000" stroke-width="0.5" stroke-linejoin="round"/>
<polygon points="61.63,41.86 66.89,35.90 69.38,30.10 69.38,24.09 67.59,18.07 60.58,10.74 51.99,6.19 53.39,13.56 58.68,16.93 62.01,21.28 63.35,25.02 63.35,28.76 62.01,32.50 58.61,36.71 53.39,39.66 54.45,39.66 59.67,36.71 63.07,32.50 64.41,28.76 64.41,25.02 63.07,21.28 59.74,16.93 54.45,13.56 53.39,13.56 58.68,16.93 62.01,21.28 63.35,25.02 63.35,28.76 62.01,32.50 58.61,36.71 53.39,39.66 52.22,46.00" fill="#ffffff" stroke="#000000" stroke-width="0.5" stroke-linejoin="round"/>
<polygon points="45.27,32.43 44.27,32.93 40.96,32.93 40.99,34.54 43.03,35.17 44.28,35.17 47.44,33.26 54.18,33.26 54.18,29.80 47.44,29.80 47.44,23.93 54.18,23.93 54.18,20.47 47.44,20.47 44.28,18.56 43.03,18.56 40.96,19.19 40.96,20.80 44.28,20.79 45.27,21.31" fill="#ffffff" stroke="#000000" stroke-width="0.5" stroke-linejoin="round"/>
<polygon points="51.55,69.15 51.55,57.94 48.34,57.94 48.34,69.15" fill="#ffffff" stroke="#000000" stroke-width="0.5" stroke-linejoin="round"/>
<polygon points="52.26,93.58 52.26,82.37 47.63,82.37 47.63,93.58" fill="#ffffff" stroke="#000000" stroke-width="0.5" stroke-linejoin="round"/>
</svg>