<svg xmlns="http://www.w3.org/2000/svg" viewBox="0 0 1920 1080" width="1920" height="1080">
<rect width="1920" height="1080" fill="#ffffff"/>
<polygon points="872.08,908.31 820.57,888.25 789.18,877.40 850.45,900.81" fill="#432c06" stroke="#432c06" stroke-width="0.6"/>
<line x1="789.18" y1="877.40" x2="850.45" y2="900.81" stroke="#000000" stroke-width="1" stroke-linecap="round"/>
<line x1="850.45" y1="900.81" x2="872.08" y2="908.31" stroke="#000000" stroke-width="1" stroke-linecap="round"/>
<polygon points="564.25,598.74 553.28,514.70 550.46,499.75 561.17,581.66" fill="#886016" stroke="#886016" stroke-width="0.6"/>
<line x1="550.46" y1="499.75" x2="561.17" y2="581.66" stroke="#000000" stroke-width="1" stroke-linecap="round"/>
<line x1="561.17" y1="581.66" x2="564.25" y2="598.74" stroke="#000000" stroke-width="1" stroke-linecap="round"/>
<polygon points="704.43,822.35 651.87,765.20 633.28,747.34 687.71,806.15" fill="#62430d" stroke="#62430d" stroke-width="0.6"/>
<line x1="633.28" y1="747.34" x2="687.71" y2="806.15" stroke="#000000" stroke-width="1" stroke-linecap="round"/>
<line x1="687.71" y1="806.15" x2="704.43" y2="822.35" stroke="#000000" stroke-width="1" stroke-linecap="round"/>
<polygon points="1103.90,902.01 1164.68,879.12 1132.60,889.70 1081.84,909.31" fill="#533608" stroke="#533608" stroke-width="0.6"/>
<line x1="1103.90" y1="902.01" x2="1164.68" y2="879.12" stroke="#000000" stroke-width="1" stroke-linecap="round"/>
<line x1="1081.84" y1="909.31" x2="1103.90" y2="902.01" stroke="#000000" stroke-width="1" stroke-linecap="round"/>
<polygon points="811.82,96.86 893.85,71.41 894.49,71.12 814.07,95.99" fill="#976a1a" stroke="#976a1a" stroke-width="0.6"/>
<line x1="894.49" y1="71.12" x2="814.07" y2="95.99" stroke="#000000" stroke-width="1" stroke-linecap="round"/>
<line x1="814.07" y1="95.99" x2="811.82" y2="96.86" stroke="#000000" stroke-width="1" stroke-linecap="round"/>
<polygon points="1267.86,808.59 1322.58,750.02 1302.75,767.80 1250.12,824.69" fill="#563809" stroke="#563809" stroke-width="0.6"/>
<line x1="1267.86" y1="808.59" x2="1322.58" y2="750.02" stroke="#000000" stroke-width="1" stroke-linecap="round"/>
<line x1="1250.12" y1="824.69" x2="1267.86" y2="808.59" stroke="#000000" stroke-width="1" stroke-linecap="round"/>
<polygon points="1396.69,584.17 1407.70,501.94 1403.49,516.94 1392.25,601.30" fill="#57390a" stroke="#57390a" stroke-width="0.6"/>
<line x1="1396.69" y1="584.17" x2="1407.70" y2="501.94" stroke="#000000" stroke-width="1" stroke-linecap="round"/>
<line x1="1392.25" y1="601.30" x2="1396.69" y2="584.17" stroke="#000000" stroke-width="1" stroke-linecap="round"/>
<polygon points="1144.37,96.12 1063.68,71.16 1064.07,71.45 1146.13,96.99" fill="#815a15" stroke="#815a15" stroke-width="0.6"/>
<line x1="1144.37" y1="96.12" x2="1063.68" y2="71.16" stroke="#000000" stroke-width="1" stroke-linecap="round"/>
<line x1="1146.13" y1="96.99" x2="1144.37" y2="96.12" stroke="#000000" stroke-width="1" stroke-linecap="round"/>
<polygon points="893.85,71.41 979.00,62.75 894.49,71.12" fill="#926719" stroke="#926719" stroke-width="0.6"/>
<line x1="979.00" y1="62.75" x2="894.49" y2="71.12" stroke="#000000" stroke-width="1" stroke-linecap="round"/>
<polygon points="789.18,877.40 733.09,837.57 704.43,822.35 766.18,865.04" fill="#513709" stroke="#513709" stroke-width="0.6"/>
<line x1="704.43" y1="822.35" x2="766.18" y2="865.04" stroke="#000000" stroke-width="1" stroke-linecap="round"/>
<line x1="766.18" y1="865.04" x2="789.18" y2="877.40" stroke="#000000" stroke-width="1" stroke-linecap="round"/>
<polygon points="1063.68,71.16 979.00,62.75 1064.07,71.45" fill="#8b6117" stroke="#8b6117" stroke-width="0.6"/>
<line x1="1063.68" y1="71.16" x2="979.00" y2="62.75" stroke="#000000" stroke-width="1" stroke-linecap="round"/>
<polygon points="553.28,514.70 559.35,428.77 556.38,416.60 550.46,499.75" fill="#926719" stroke="#926719" stroke-width="0.6"/>
<line x1="556.38" y1="416.60" x2="550.46" y2="499.75" stroke="#000000" stroke-width="1" stroke-linecap="round"/>
<polygon points="1188.44,866.95 1250.12,824.69 1220.44,839.70 1164.68,879.12" fill="#543708" stroke="#543708" stroke-width="0.6"/>
<line x1="1188.44" y1="866.95" x2="1250.12" y2="824.69" stroke="#000000" stroke-width="1" stroke-linecap="round"/>
<line x1="1164.68" y1="879.12" x2="1188.44" y2="866.95" stroke="#000000" stroke-width="1" stroke-linecap="round"/>
<polygon points="896.49,71.69 979.00,62.75 893.85,71.41" fill="#946819" stroke="#946819" stroke-width="0.6"/>
<polygon points="898.33,914.33 859.21,897.04 820.57,888.25 872.08,908.31" fill="#442c06" stroke="#442c06" stroke-width="0.6"/>
<line x1="872.08" y1="908.31" x2="898.33" y2="914.33" stroke="#000000" stroke-width="1" stroke-linecap="round"/>
<polygon points="1064.07,71.45 979.00,62.75 1061.17,71.73" fill="#8d6218" stroke="#8d6218" stroke-width="0.6"/>
<polygon points="1081.84,909.31 1132.60,889.70 1093.38,898.13 1055.23,915.08" fill="#513508" stroke="#513508" stroke-width="0.6"/>
<line x1="1055.23" y1="915.08" x2="1081.84" y2="909.31" stroke="#000000" stroke-width="1" stroke-linecap="round"/>
<polygon points="1407.70,501.94 1401.95,418.39 1397.63,430.59 1403.49,516.94" fill="#55380a" stroke="#55380a" stroke-width="0.6"/>
<line x1="1407.70" y1="501.94" x2="1401.95" y2="418.39" stroke="#000000" stroke-width="1" stroke-linecap="round"/>
<polygon points="559.35,428.77 582.45,344.71 578.98,335.59 556.38,416.60" fill="#996c1a" stroke="#996c1a" stroke-width="0.6"/>
<line x1="578.98" y1="335.59" x2="556.38" y2="416.60" stroke="#000000" stroke-width="1" stroke-linecap="round"/>
<polygon points="651.87,765.20 611.17,695.48 591.42,677.33 633.28,747.34" fill="#775312" stroke="#775312" stroke-width="0.6"/>
<line x1="591.42" y1="677.33" x2="633.28" y2="747.34" stroke="#000000" stroke-width="1" stroke-linecap="round"/>
<polygon points="816.05,97.73 896.49,71.69 893.85,71.41 811.82,96.86" fill="#9b6d1b" stroke="#9b6d1b" stroke-width="0.6"/>
<polygon points="902.38,71.97 979.00,62.75 896.49,71.69" fill="#95681a" stroke="#95681a" stroke-width="0.6"/>
<polygon points="1061.17,71.73 979.00,62.75 1055.03,72.01" fill="#8e6418" stroke="#8e6418" stroke-width="0.6"/>
<polygon points="1146.13,96.99 1064.07,71.45 1061.17,71.73 1141.38,97.86" fill="#875e16" stroke="#875e16" stroke-width="0.6"/>
<polygon points="582.45,344.71 621.71,266.30 617.57,260.08 578.98,335.59" fill="#9e701b" stroke="#9e701b" stroke-width="0.6"/>
<line x1="617.57" y1="260.08" x2="578.98" y2="335.59" stroke="#000000" stroke-width="1" stroke-linecap="round"/>
<polygon points="741.24,140.07 816.05,97.73 811.82,96.86 736.39,138.07" fill="#9f701c" stroke="#9f701c" stroke-width="0.6"/>
<line x1="811.82" y1="96.86" x2="736.39" y2="138.07" stroke="#000000" stroke-width="1" stroke-linecap="round"/>
<polygon points="1401.95,418.39 1379.40,336.93 1374.66,346.08 1397.63,430.59" fill="#523609" stroke="#523609" stroke-width="0.6"/>
<line x1="1401.95" y1="418.39" x2="1379.40" y2="336.93" stroke="#000000" stroke-width="1" stroke-linecap="round"/>
<polygon points="1322.58,750.02 1364.76,680.05 1343.61,698.13 1302.75,767.80" fill="#543708" stroke="#543708" stroke-width="0.6"/>
<line x1="1322.58" y1="750.02" x2="1364.76" y2="680.05" stroke="#000000" stroke-width="1" stroke-linecap="round"/>
<polygon points="928.12,918.58 903.49,903.27 859.21,897.04 898.33,914.33" fill="#452d06" stroke="#452d06" stroke-width="0.6"/>
<line x1="898.33" y1="914.33" x2="928.12" y2="918.58" stroke="#000000" stroke-width="1" stroke-linecap="round"/>
<polygon points="621.71,266.30 675.46,197.06 670.74,193.27 617.57,260.08" fill="#a1721c" stroke="#a1721c" stroke-width="0.6"/>
<line x1="670.74" y1="193.27" x2="617.57" y2="260.08" stroke="#000000" stroke-width="1" stroke-linecap="round"/>
<polygon points="911.34,72.22 979.00,62.75 902.38,71.97" fill="#96691a" stroke="#96691a" stroke-width="0.6"/>
<polygon points="675.46,197.06 741.24,140.07 736.39,138.07 670.74,193.27" fill="#a1721c" stroke="#a1721c" stroke-width="0.6"/>
<line x1="736.39" y1="138.07" x2="670.74" y2="193.27" stroke="#000000" stroke-width="1" stroke-linecap="round"/>
<polygon points="1055.23,915.08 1093.38,898.13 1048.69,903.96 1025.19,919.05" fill="#4e3307" stroke="#4e3307" stroke-width="0.6"/>
<line x1="1025.19" y1="919.05" x2="1055.23" y2="915.08" stroke="#000000" stroke-width="1" stroke-linecap="round"/>
<polygon points="1055.03,72.01 979.00,62.75 1045.84,72.25" fill="#906518" stroke="#906518" stroke-width="0.6"/>
<polygon points="1221.66,138.37 1146.13,96.99 1141.38,97.86 1216.06,140.36" fill="#7e5714" stroke="#7e5714" stroke-width="0.6"/>
<line x1="1221.66" y1="138.37" x2="1146.13" y2="96.99" stroke="#000000" stroke-width="1" stroke-linecap="round"/>
<polygon points="1379.40,336.93 1340.76,260.99 1335.46,267.23 1374.66,346.08" fill="#53370a" stroke="#53370a" stroke-width="0.6"/>
<line x1="1379.40" y1="336.93" x2="1340.76" y2="260.99" stroke="#000000" stroke-width="1" stroke-linecap="round"/>
<polygon points="1287.46,193.83 1221.66,138.37 1216.06,140.36 1281.77,197.62" fill="#724e11" stroke="#724e11" stroke-width="0.6"/>
<line x1="1287.46" y1="193.83" x2="1221.66" y2="138.37" stroke="#000000" stroke-width="1" stroke-linecap="round"/>
<polygon points="923.05,72.43 979.00,62.75 911.34,72.22" fill="#966a1a" stroke="#966a1a" stroke-width="0.6"/>
<polygon points="1340.76,260.99 1287.46,193.83 1281.77,197.62 1335.46,267.23" fill="#63430e" stroke="#63430e" stroke-width="0.6"/>
<line x1="1340.76" y1="260.99" x2="1287.46" y2="193.83" stroke="#000000" stroke-width="1" stroke-linecap="round"/>
<polygon points="1045.84,72.25 979.00,62.75 1033.92,72.46" fill="#926619" stroke="#926619" stroke-width="0.6"/>
<polygon points="960.16,920.85 951.38,906.61 903.49,903.27 928.12,918.58" fill="#472f06" stroke="#472f06" stroke-width="0.6"/>
<line x1="928.12" y1="918.58" x2="960.16" y2="920.85" stroke="#000000" stroke-width="1" stroke-linecap="round"/>
<polygon points="820.57,888.25 773.04,851.04 733.09,837.57 789.18,877.40" fill="#593d0b" stroke="#593d0b" stroke-width="0.6"/>
<polygon points="1025.19,919.05 1048.69,903.96 1000.58,906.84 993.02,921.01" fill="#4c3207" stroke="#4c3207" stroke-width="0.6"/>
<line x1="993.02" y1="921.01" x2="1025.19" y2="919.05" stroke="#000000" stroke-width="1" stroke-linecap="round"/>
<polygon points="826.83,98.57 902.38,71.97 896.49,71.69 816.05,97.73" fill="#9e6f1c" stroke="#9e6f1c" stroke-width="0.6"/>
<polygon points="733.09,837.57 684.97,782.11 651.87,765.20 704.43,822.35" fill="#6d4c10" stroke="#6d4c10" stroke-width="0.6"/>
<polygon points="611.17,695.48 584.62,615.86 564.25,598.74 591.42,677.33" fill="#875f16" stroke="#875f16" stroke-width="0.6"/>
<line x1="564.25" y1="598.74" x2="591.42" y2="677.33" stroke="#000000" stroke-width="1" stroke-linecap="round"/>
<polygon points="993.02,921.01 1000.58,906.84 951.38,906.61 960.16,920.85" fill="#493006" stroke="#493006" stroke-width="0.6"/>
<line x1="960.16" y1="920.85" x2="993.02" y2="921.01" stroke="#000000" stroke-width="1" stroke-linecap="round"/>
<polygon points="937.07,72.60 979.00,62.75 923.05,72.43" fill="#976a1a" stroke="#976a1a" stroke-width="0.6"/>
<polygon points="1141.38,97.86 1061.17,71.73 1055.03,72.01 1130.09,98.69" fill="#8c6117" stroke="#8c6117" stroke-width="0.6"/>
<polygon points="1033.92,72.46 979.00,62.75 1019.74,72.63" fill="#936719" stroke="#936719" stroke-width="0.6"/>
<polygon points="1164.68,879.12 1220.44,839.70 1179.54,852.85 1132.60,889.70" fill="#513508" stroke="#513508" stroke-width="0.6"/>
<polygon points="952.83,72.73 979.00,62.75 937.07,72.60" fill="#976a1a" stroke="#976a1a" stroke-width="0.6"/>
<polygon points="1019.74,72.63 979.00,62.75 1003.86,72.74" fill="#946819" stroke="#946819" stroke-width="0.6"/>
<polygon points="1250.12,824.69 1302.75,767.80 1268.39,784.49 1220.44,839.70" fill="#533608" stroke="#533608" stroke-width="0.6"/>
<polygon points="969.69,72.79 979.00,62.75 952.83,72.73" fill="#976a1a" stroke="#976a1a" stroke-width="0.6"/>
<polygon points="1003.86,72.74 979.00,62.75 986.94,72.79" fill="#95691a" stroke="#95691a" stroke-width="0.6"/>
<polygon points="1364.76,680.05 1392.25,601.30 1370.37,618.36 1343.61,698.13" fill="#543709" stroke="#543709" stroke-width="0.6"/>
<line x1="1364.76" y1="680.05" x2="1392.25" y2="601.30" stroke="#000000" stroke-width="1" stroke-linecap="round"/>
<polygon points="986.94,72.79 979.00,62.75 969.69,72.79" fill="#96691a" stroke="#96691a" stroke-width="0.6"/>
<polygon points="843.92,99.35 911.34,72.22 902.38,71.97 826.83,98.57" fill="#a0711c" stroke="#a0711c" stroke-width="0.6"/>
<polygon points="755.78,142.02 826.83,98.57 816.05,97.73 741.24,140.07" fill="#a4741d" stroke="#a4741d" stroke-width="0.6"/>
<polygon points="584.62,615.86 573.88,529.72 553.28,514.70 564.25,598.74" fill="#936819" stroke="#936819" stroke-width="0.6"/>
<polygon points="1130.09,98.69 1055.03,72.01 1045.84,72.25 1112.50,99.46" fill="#906519" stroke="#906519" stroke-width="0.6"/>
<polygon points="1216.06,140.36 1141.38,97.86 1130.09,98.69 1200.73,142.30" fill="#865e16" stroke="#865e16" stroke-width="0.6"/>
<polygon points="859.21,897.04 822.89,862.02 773.04,851.04 820.57,888.25" fill="#5e400c" stroke="#5e400c" stroke-width="0.6"/>
<polygon points="1392.25,601.30 1403.49,516.94 1381.35,531.92 1370.37,618.36" fill="#533709" stroke="#533709" stroke-width="0.6"/>
<polygon points="1132.60,889.70 1179.54,852.85 1128.88,863.40 1093.38,898.13" fill="#4e3307" stroke="#4e3307" stroke-width="0.6"/>
<polygon points="692.67,200.80 755.78,142.02 741.24,140.07 675.46,197.06" fill="#a7761e" stroke="#a7761e" stroke-width="0.6"/>
<polygon points="573.88,529.72 579.83,440.98 559.35,428.77 553.28,514.70" fill="#9c6f1b" stroke="#9c6f1b" stroke-width="0.6"/>
<polygon points="684.97,782.11 647.47,712.76 611.17,695.48 651.87,765.20" fill="#815b15" stroke="#815b15" stroke-width="0.6"/>
<polygon points="866.79,100.03 923.05,72.43 911.34,72.22 843.92,99.35" fill="#a2721d" stroke="#a2721d" stroke-width="0.6"/>
<polygon points="1112.50,99.46 1045.84,72.25 1033.92,72.46 1089.18,100.12" fill="#95681a" stroke="#95681a" stroke-width="0.6"/>
<polygon points="1281.77,197.62 1216.06,140.36 1200.73,142.30 1263.51,201.34" fill="#7f5814" stroke="#7f5814" stroke-width="0.6"/>
<polygon points="640.68,272.49 692.67,200.80 675.46,197.06 621.71,266.30" fill="#a8771e" stroke="#a8771e" stroke-width="0.6"/>
<polygon points="1302.75,767.80 1343.61,698.13 1305.86,715.20 1268.39,784.49" fill="#503408" stroke="#503408" stroke-width="0.6"/>
<polygon points="579.83,440.98 602.43,353.84 582.45,344.71 559.35,428.77" fill="#a3731d" stroke="#a3731d" stroke-width="0.6"/>
<polygon points="1403.49,516.94 1397.63,430.59 1375.63,442.76 1381.35,531.92" fill="#513509" stroke="#513509" stroke-width="0.6"/>
<polygon points="773.04,851.04 731.98,797.18 684.97,782.11 733.09,837.57" fill="#745111" stroke="#745111" stroke-width="0.6"/>
<polygon points="602.43,353.84 640.68,272.49 621.71,266.30 582.45,344.71" fill="#a6761d" stroke="#a6761d" stroke-width="0.6"/>
<polygon points="894.59,100.58 937.07,72.60 923.05,72.43 866.79,100.03" fill="#a3731d" stroke="#a3731d" stroke-width="0.6"/>
<polygon points="779.87,143.84 843.92,99.35 826.83,98.57 755.78,142.02" fill="#a8771e" stroke="#a8771e" stroke-width="0.6"/>
<polygon points="1335.46,267.23 1281.77,197.62 1263.51,201.34 1315.24,273.39" fill="#755112" stroke="#755112" stroke-width="0.6"/>
<polygon points="1089.18,100.12 1033.92,72.46 1019.74,72.63 1061.01,100.65" fill="#996b1b" stroke="#996b1b" stroke-width="0.6"/>
<polygon points="1220.44,839.70 1268.39,784.49 1220.18,799.21 1179.54,852.85" fill="#4f3407" stroke="#4f3407" stroke-width="0.6"/>
<polygon points="903.49,903.27 880.53,869.86 822.89,862.02 859.21,897.04" fill="#5f410c" stroke="#5f410c" stroke-width="0.6"/>
<polygon points="1397.63,430.59 1374.66,346.08 1353.26,355.17 1375.63,442.76" fill="#5c3e0c" stroke="#5c3e0c" stroke-width="0.6"/>
<polygon points="1200.73,142.30 1130.09,98.69 1112.50,99.46 1175.86,144.10" fill="#8f6418" stroke="#8f6418" stroke-width="0.6"/>
<polygon points="1093.38,898.13 1128.88,863.40 1070.66,870.72 1048.69,903.96" fill="#4a3107" stroke="#4a3107" stroke-width="0.6"/>
<polygon points="1374.66,346.08 1335.46,267.23 1315.24,273.39 1353.26,355.17" fill="#69480f" stroke="#69480f" stroke-width="0.6"/>
<polygon points="926.18,100.96 952.83,72.73 937.07,72.60 894.59,100.58" fill="#a3731d" stroke="#a3731d" stroke-width="0.6"/>
<polygon points="1061.01,100.65 1019.74,72.63 1003.86,72.74 1029.16,101.01" fill="#9d6e1b" stroke="#9d6e1b" stroke-width="0.6"/>
<polygon points="647.47,712.76 622.89,632.23 584.62,615.86 611.17,695.48" fill="#916618" stroke="#916618" stroke-width="0.6"/>
<polygon points="960.17,101.17 969.69,72.79 952.83,72.73 926.18,100.96" fill="#a3731d" stroke="#a3731d" stroke-width="0.6"/>
<polygon points="951.38,906.61 943.19,874.06 880.53,869.86 903.49,903.27" fill="#5e400c" stroke="#5e400c" stroke-width="0.6"/>
<polygon points="1029.16,101.01 1003.86,72.74 986.94,72.79 995.03,101.18" fill="#9f701c" stroke="#9f701c" stroke-width="0.6"/>
<polygon points="1048.69,903.96 1070.66,870.72 1007.69,874.36 1000.58,906.84" fill="#503608" stroke="#503608" stroke-width="0.6"/>
<polygon points="995.03,101.18 986.94,72.79 969.69,72.79 960.17,101.17" fill="#a1721d" stroke="#a1721d" stroke-width="0.6"/>
<polygon points="1000.58,906.84 1007.69,874.36 943.19,874.06 951.38,906.61" fill="#593c0a" stroke="#593c0a" stroke-width="0.6"/>
<polygon points="1343.61,698.13 1370.37,618.36 1330.53,634.54 1305.86,715.20" fill="#4f3408" stroke="#4f3408" stroke-width="0.6"/>
<polygon points="722.44,204.32 779.87,143.84 755.78,142.02 692.67,200.80" fill="#ac7a1f" stroke="#ac7a1f" stroke-width="0.6"/>
<polygon points="812.87,145.44 866.79,100.03 843.92,99.35 779.87,143.84" fill="#ab791f" stroke="#ab791f" stroke-width="0.6"/>
<polygon points="1175.86,144.10 1112.50,99.46 1089.18,100.12 1142.15,145.66" fill="#96691a" stroke="#96691a" stroke-width="0.6"/>
<polygon points="1263.51,201.34 1200.73,142.30 1175.86,144.10 1232.69,204.82" fill="#8a6117" stroke="#8a6117" stroke-width="0.6"/>
<polygon points="822.89,862.02 791.34,809.54 731.98,797.18 773.04,851.04" fill="#775312" stroke="#775312" stroke-width="0.6"/>
<polygon points="622.89,632.23 612.93,544.10 573.88,529.72 584.62,615.86" fill="#9c6e1b" stroke="#9c6e1b" stroke-width="0.6"/>
<polygon points="731.98,797.18 699.80,728.25 647.47,712.76 684.97,782.11" fill="#885f16" stroke="#885f16" stroke-width="0.6"/>
<polygon points="1179.54,852.85 1220.18,799.21 1159.80,811.10 1128.88,863.40" fill="#4c3207" stroke="#4c3207" stroke-width="0.6"/>
<polygon points="1268.39,784.49 1305.86,715.20 1252.13,730.35 1220.18,799.21" fill="#4b3107" stroke="#4b3107" stroke-width="0.6"/>
<polygon points="674.74,278.36 722.44,204.32 692.67,200.80 640.68,272.49" fill="#ae7b1f" stroke="#ae7b1f" stroke-width="0.6"/>
<polygon points="1370.37,618.36 1381.35,531.92 1340.67,546.14 1330.53,634.54" fill="#573a0a" stroke="#573a0a" stroke-width="0.6"/>
<polygon points="853.58,146.74 894.59,100.58 866.79,100.03 812.87,145.44" fill="#ac7a1f" stroke="#ac7a1f" stroke-width="0.6"/>
<polygon points="612.93,544.10 618.47,452.66 579.83,440.98 573.88,529.72" fill="#a5751d" stroke="#a5751d" stroke-width="0.6"/>
<polygon points="1315.24,273.39 1263.51,201.34 1232.69,204.82 1279.89,279.19" fill="#845c16" stroke="#845c16" stroke-width="0.6"/>
<polygon points="1142.15,145.66 1089.18,100.12 1061.01,100.65 1100.84,146.90" fill="#9c6e1b" stroke="#9c6e1b" stroke-width="0.6"/>
<polygon points="639.43,362.54 674.74,278.36 640.68,272.49 602.43,353.84" fill="#ad7b1f" stroke="#ad7b1f" stroke-width="0.6"/>
<polygon points="618.47,452.66 639.43,362.54 602.43,353.84 579.83,440.98" fill="#aa791e" stroke="#aa791e" stroke-width="0.6"/>
<polygon points="1381.35,531.92 1375.63,442.76 1335.40,454.31 1340.67,546.14" fill="#66450e" stroke="#66450e" stroke-width="0.6"/>
<polygon points="880.53,869.86 860.51,818.41 791.34,809.54 822.89,862.02" fill="#785412" stroke="#785412" stroke-width="0.6"/>
<polygon points="764.12,207.44 812.87,145.44 779.87,143.84 722.44,204.32" fill="#b07d20" stroke="#b07d20" stroke-width="0.6"/>
<polygon points="1353.26,355.17 1315.24,273.39 1279.89,279.19 1314.78,363.77" fill="#7b5513" stroke="#7b5513" stroke-width="0.6"/>
<polygon points="1128.88,863.40 1159.80,811.10 1089.88,819.39 1070.66,870.72" fill="#5d3f0b" stroke="#5d3f0b" stroke-width="0.6"/>
<polygon points="1375.63,442.76 1353.26,355.17 1314.78,363.77 1335.40,454.31" fill="#714e11" stroke="#714e11" stroke-width="0.6"/>
<polygon points="900.31,147.66 926.18,100.96 894.59,100.58 853.58,146.74" fill="#ac7a1f" stroke="#ac7a1f" stroke-width="0.6"/>
<polygon points="1232.69,204.82 1175.86,144.10 1142.15,145.66 1190.04,207.86" fill="#95681a" stroke="#95681a" stroke-width="0.6"/>
<polygon points="1100.84,146.90 1061.01,100.65 1029.16,101.01 1053.68,147.77" fill="#a2721d" stroke="#a2721d" stroke-width="0.6"/>
<polygon points="699.80,728.25 678.63,646.95 622.89,632.23 647.47,712.76" fill="#976a1a" stroke="#976a1a" stroke-width="0.6"/>
<polygon points="1305.86,715.20 1330.53,634.54 1273.26,648.95 1252.13,730.35" fill="#5e400c" stroke="#5e400c" stroke-width="0.6"/>
<polygon points="950.90,148.16 960.17,101.17 926.18,100.96 900.31,147.66" fill="#ac791f" stroke="#ac791f" stroke-width="0.6"/>
<polygon points="943.19,874.06 936.05,823.17 860.51,818.41 880.53,869.86" fill="#755111" stroke="#755111" stroke-width="0.6"/>
<polygon points="791.34,809.54 766.51,741.01 699.80,728.25 731.98,797.18" fill="#8b6217" stroke="#8b6217" stroke-width="0.6"/>
<polygon points="1053.68,147.77 1029.16,101.01 995.03,101.18 1002.88,148.19" fill="#a6751e" stroke="#a6751e" stroke-width="0.6"/>
<polygon points="1070.66,870.72 1089.88,819.39 1013.93,823.51 1007.69,874.36" fill="#68480e" stroke="#68480e" stroke-width="0.6"/>
<polygon points="1002.88,148.19 995.03,101.18 960.17,101.17 950.90,148.16" fill="#a9781f" stroke="#a9781f" stroke-width="0.6"/>
<polygon points="1220.18,799.21 1252.13,730.35 1184.22,742.62 1159.80,811.10" fill="#60410c" stroke="#60410c" stroke-width="0.6"/>
<polygon points="1007.69,874.36 1013.93,823.51 936.05,823.17 943.19,874.06" fill="#704e10" stroke="#704e10" stroke-width="0.6"/>
<polygon points="723.33,283.61 764.12,207.44 722.44,204.32 674.74,278.36" fill="#b27e20" stroke="#b27e20" stroke-width="0.6"/>
<polygon points="816.26,209.99 853.58,146.74 812.87,145.44 764.12,207.44" fill="#b27e20" stroke="#b27e20" stroke-width="0.6"/>
<polygon points="678.63,646.95 670.04,557.06 612.93,544.10 622.89,632.23" fill="#a2731c" stroke="#a2731c" stroke-width="0.6"/>
<polygon points="1279.89,279.19 1232.69,204.82 1190.04,207.86 1230.08,284.31" fill="#916619" stroke="#916619" stroke-width="0.6"/>
<polygon points="1190.04,207.86 1142.15,145.66 1100.84,146.90 1137.07,210.31" fill="#9d6f1c" stroke="#9d6f1c" stroke-width="0.6"/>
<polygon points="1330.53,634.54 1340.67,546.14 1281.98,558.81 1273.26,648.95" fill="#6d4b10" stroke="#6d4b10" stroke-width="0.6"/>
<polygon points="692.96,370.35 723.33,283.61 674.74,278.36 639.43,362.54" fill="#b27e20" stroke="#b27e20" stroke-width="0.6"/>
<polygon points="670.04,557.06 674.85,463.17 618.47,452.66 612.93,544.10" fill="#aa791e" stroke="#aa791e" stroke-width="0.6"/>
<polygon points="860.51,818.41 844.71,750.20 766.51,741.01 791.34,809.54" fill="#8b6217" stroke="#8b6217" stroke-width="0.6"/>
<polygon points="674.85,463.17 692.96,370.35 639.43,362.54 618.47,452.66" fill="#af7c20" stroke="#af7c20" stroke-width="0.6"/>
<polygon points="1314.78,363.77 1279.89,279.19 1230.08,284.31 1259.84,371.40" fill="#8b6117" stroke="#8b6117" stroke-width="0.6"/>
<polygon points="1159.80,811.10 1184.22,742.62 1105.12,751.21 1089.88,819.39" fill="#6f4d10" stroke="#6f4d10" stroke-width="0.6"/>
<polygon points="766.51,741.01 750.13,659.12 678.63,646.95 699.80,728.25" fill="#9a6d1a" stroke="#9a6d1a" stroke-width="0.6"/>
<polygon points="876.65,211.81 900.31,147.66 853.58,146.74 816.26,209.99" fill="#b27e21" stroke="#b27e21" stroke-width="0.6"/>
<polygon points="1340.67,546.14 1335.40,454.31 1277.48,464.59 1281.98,558.81" fill="#785413" stroke="#785413" stroke-width="0.6"/>
<polygon points="1137.07,210.31 1100.84,146.90 1053.68,147.77 1076.07,212.01" fill="#a5741d" stroke="#a5741d" stroke-width="0.6"/>
<polygon points="1335.40,454.31 1314.78,363.77 1259.84,371.40 1277.48,464.59" fill="#825b15" stroke="#825b15" stroke-width="0.6"/>
<polygon points="1252.13,730.35 1273.26,648.95 1200.44,660.66 1184.22,742.62" fill="#704d10" stroke="#704d10" stroke-width="0.6"/>
<polygon points="784.84,287.91 816.26,209.99 764.12,207.44 723.33,283.61" fill="#b58021" stroke="#b58021" stroke-width="0.6"/>
<polygon points="942.37,212.79 950.90,148.16 900.31,147.66 876.65,211.81" fill="#b17d20" stroke="#b17d20" stroke-width="0.6"/>
<polygon points="936.05,823.17 930.44,755.15 844.71,750.20 860.51,818.41" fill="#886016" stroke="#886016" stroke-width="0.6"/>
<polygon points="1230.08,284.31 1190.04,207.86 1137.07,210.31 1167.52,288.45" fill="#9c6e1b" stroke="#9c6e1b" stroke-width="0.6"/>
<polygon points="1076.07,212.01 1053.68,147.77 1002.88,148.19 1010.03,212.86" fill="#aa781f" stroke="#aa781f" stroke-width="0.6"/>
<polygon points="1089.88,819.39 1105.12,751.21 1018.92,755.49 1013.93,823.51" fill="#7a5513" stroke="#7a5513" stroke-width="0.6"/>
<polygon points="1010.03,212.86 1002.88,148.19 950.90,148.16 942.37,212.79" fill="#af7b20" stroke="#af7b20" stroke-width="0.6"/>
<polygon points="1013.93,823.51 1018.92,755.49 930.44,755.15 936.05,823.17" fill="#825c15" stroke="#825c15" stroke-width="0.6"/>
<polygon points="750.13,659.12 743.49,567.77 670.04,557.06 678.63,646.95" fill="#a5751d" stroke="#a5751d" stroke-width="0.6"/>
<polygon points="1273.26,648.95 1281.98,558.81 1207.16,569.13 1200.44,660.66" fill="#7d5714" stroke="#7d5714" stroke-width="0.6"/>
<polygon points="761.33,376.78 784.84,287.91 723.33,283.61 692.96,370.35" fill="#b58021" stroke="#b58021" stroke-width="0.6"/>
<polygon points="844.71,750.20 834.28,667.90 750.13,659.12 766.51,741.01" fill="#9a6d1b" stroke="#9a6d1b" stroke-width="0.6"/>
<polygon points="1259.84,371.40 1230.08,284.31 1167.52,288.45 1190.24,377.60" fill="#986b1a" stroke="#986b1a" stroke-width="0.6"/>
<polygon points="1184.22,742.62 1200.44,660.66 1115.29,668.87 1105.12,751.21" fill="#7d5713" stroke="#7d5713" stroke-width="0.6"/>
<polygon points="856.63,291.00 876.65,211.81 816.26,209.99 784.84,287.91" fill="#b58121" stroke="#b58121" stroke-width="0.6"/>
<polygon points="743.49,567.77 747.25,471.86 674.85,463.17 670.04,557.06" fill="#ad7b1f" stroke="#ad7b1f" stroke-width="0.6"/>
<polygon points="1167.52,288.45 1137.07,210.31 1076.07,212.01 1094.95,291.34" fill="#a5741d" stroke="#a5741d" stroke-width="0.6"/>
<polygon points="747.25,471.86 761.33,376.78 692.96,370.35 674.85,463.17" fill="#b27e20" stroke="#b27e20" stroke-width="0.6"/>
<polygon points="1281.98,558.81 1277.48,464.59 1203.74,472.96 1207.16,569.13" fill="#885f16" stroke="#885f16" stroke-width="0.6"/>
<polygon points="1277.48,464.59 1259.84,371.40 1190.24,377.60 1203.74,472.96" fill="#916619" stroke="#916619" stroke-width="0.6"/>
<polygon points="935.11,292.66 942.37,212.79 876.65,211.81 856.63,291.00" fill="#b48021" stroke="#b48021" stroke-width="0.6"/>
<polygon points="930.44,755.15 926.75,672.63 834.28,667.90 844.71,750.20" fill="#976b1a" stroke="#976b1a" stroke-width="0.6"/>
<polygon points="1094.95,291.34 1076.07,212.01 1010.03,212.86 1016.05,292.78" fill="#ac791f" stroke="#ac791f" stroke-width="0.6"/>
<polygon points="1105.12,751.21 1115.29,668.87 1022.29,672.97 1018.92,755.49" fill="#896016" stroke="#896016" stroke-width="0.6"/>
<polygon points="834.28,667.90 830.08,575.51 743.49,567.77 750.13,659.12" fill="#a5751d" stroke="#a5751d" stroke-width="0.6"/>
<polygon points="1016.05,292.78 1010.03,212.86 942.37,212.79 935.11,292.66" fill="#b17d20" stroke="#b17d20" stroke-width="0.6"/>
<polygon points="1018.92,755.49 1022.29,672.97 926.75,672.63 930.44,755.15" fill="#926719" stroke="#926719" stroke-width="0.6"/>
<polygon points="841.58,381.42 856.63,291.00 784.84,287.91 761.33,376.78" fill="#b58121" stroke="#b58121" stroke-width="0.6"/>
<polygon points="1200.44,660.66 1207.16,569.13 1119.54,576.37 1115.29,668.87" fill="#8b6117" stroke="#8b6117" stroke-width="0.6"/>
<polygon points="1190.24,377.60 1167.52,288.45 1094.95,291.34 1109.07,381.93" fill="#a2721d" stroke="#a2721d" stroke-width="0.6"/>
<polygon points="830.08,575.51 832.54,478.13 747.25,471.86 743.49,567.77" fill="#ad7b1f" stroke="#ad7b1f" stroke-width="0.6"/>
<polygon points="832.54,478.13 841.58,381.42 761.33,376.78 747.25,471.86" fill="#b27f20" stroke="#b27f20" stroke-width="0.6"/>
<polygon points="1207.16,569.13 1203.74,472.96 1117.45,478.83 1119.54,576.37" fill="#95691a" stroke="#95691a" stroke-width="0.6"/>
<polygon points="1203.74,472.96 1190.24,377.60 1109.07,381.93 1117.45,478.83" fill="#9d6f1b" stroke="#9d6f1b" stroke-width="0.6"/>
<polygon points="929.63,383.92 935.11,292.66 856.63,291.00 841.58,381.42" fill="#b47f21" stroke="#b47f21" stroke-width="0.6"/>
<polygon points="926.75,672.63 925.32,579.69 830.08,575.51 834.28,667.90" fill="#a3731d" stroke="#a3731d" stroke-width="0.6"/>
<polygon points="1109.07,381.93 1094.95,291.34 1016.05,292.78 1020.54,384.10" fill="#aa781f" stroke="#aa781f" stroke-width="0.6"/>
<polygon points="1115.29,668.87 1119.54,576.37 1023.75,579.98 1022.29,672.97" fill="#956919" stroke="#956919" stroke-width="0.6"/>
<polygon points="1020.54,384.10 1016.05,292.78 935.11,292.66 929.63,383.92" fill="#b07d20" stroke="#b07d20" stroke-width="0.6"/>
<polygon points="1022.29,672.97 1023.75,579.98 925.32,579.69 926.75,672.63" fill="#9d6f1b" stroke="#9d6f1b" stroke-width="0.6"/>
<polygon points="926.29,481.52 929.63,383.92 841.58,381.42 832.54,478.13" fill="#b17d20" stroke="#b17d20" stroke-width="0.6"/>
<polygon points="925.32,579.69 926.29,481.52 832.54,478.13 830.08,575.51" fill="#ab791f" stroke="#ab791f" stroke-width="0.6"/>
<polygon points="1117.45,478.83 1109.07,381.93 1020.54,384.10 1023.16,481.76" fill="#a6761e" stroke="#a6761e" stroke-width="0.6"/>
<polygon points="1119.54,576.37 1117.45,478.83 1023.16,481.76 1023.75,579.98" fill="#9f711c" stroke="#9f711c" stroke-width="0.6"/>
<polygon points="1023.16,481.76 1020.54,384.10 929.63,383.92 926.29,481.52" fill="#ad7a1f" stroke="#ad7a1f" stroke-width="0.6"/>
<polygon points="1023.75,579.98 1023.16,481.76 926.29,481.52 925.32,579.69" fill="#a6761e" stroke="#a6761e" stroke-width="0.6"/>
<polygon points="870.81,572.95 924.92,735.07 1462.81,446.88 1819.87,48.03" fill="#0323b8" stroke="#0323b8" stroke-width="0.6"/>
<line x1="870.81" y1="572.95" x2="924.92" y2="735.07" stroke="#000000" stroke-width="1" stroke-linecap="round"/>
<line x1="924.92" y1="735.07" x2="1462.81" y2="446.88" stroke="#000000" stroke-width="1" stroke-linecap="round"/>
<line x1="1462.81" y1="446.88" x2="1819.87" y2="48.03" stroke="#000000" stroke-width="1" stroke-linecap="round"/>
<line x1="1819.87" y1="48.03" x2="870.81" y2="572.95" stroke="#000000" stroke-width="1" stroke-linecap="round"/>
<polygon points="924.92,735.07 948.87,756.33 1479.08,473.87 1462.81,446.88" fill="#010d5e" stroke="#010d5e" stroke-width="0.6"/>
<line x1="924.92" y1="735.07" x2="948.87" y2="756.33" stroke="#000000" stroke-width="1" stroke-linecap="round"/>
<line x1="948.87" y1="756.33" x2="1479.08" y2="473.87" stroke="#000000" stroke-width="1" stroke-linecap="round"/>
<line x1="1479.08" y1="473.87" x2="1462.81" y2="446.88" stroke="#000000" stroke-width="1" stroke-linecap="round"/>
<line x1="1462.81" y1="446.88" x2="924.92" y2="735.07" stroke="#000000" stroke-width="1" stroke-linecap="round"/>
<polygon points="1819.87,48.03 1462.81,446.88 1479.08,473.87 1830.17,81.19" fill="#010d5c" stroke="#010d5c" stroke-width="0.6"/>
<line x1="1819.87" y1="48.03" x2="1462.81" y2="446.88" stroke="#000000" stroke-width="1" stroke-linecap="round"/>
<line x1="1462.81" y1="446.88" x2="1479.08" y2="473.87" stroke="#000000" stroke-width="1" stroke-linecap="round"/>
<line x1="1479.08" y1="473.87" x2="1830.17" y2="81.19" stroke="#000000" stroke-width="1" stroke-linecap="round"/>
<line x1="1830.17" y1="81.19" x2="1819.87" y2="48.03" stroke="#000000" stroke-width="1" stroke-linecap="round"/>
<polygon points="920.66,290.71 875.28,288.23 513.42,348.33 565.08,352.08" fill="#8f0025" stroke="#8f0025" stroke-width="0.6"/>
<line x1="920.66" y1="290.71" x2="875.28" y2="288.23" stroke="#000000" stroke-width="1" stroke-linecap="round"/>
<line x1="875.28" y1="288.23" x2="513.42" y2="348.33" stroke="#000000" stroke-width="1" stroke-linecap="round"/>
<line x1="513.42" y1="348.33" x2="565.08" y2="352.08" stroke="#000000" stroke-width="1" stroke-linecap="round"/>
<line x1="565.08" y1="352.08" x2="920.66" y2="290.71" stroke="#000000" stroke-width="1" stroke-linecap="round"/>
<polygon points="921.23,493.37 920.66,290.71 565.08,352.08 158.18,725.39" fill="#520011" stroke="#520011" stroke-width="0.6"/>
<line x1="921.23" y1="493.37" x2="920.66" y2="290.71" stroke="#000000" stroke-width="1" stroke-linecap="round"/>
<line x1="920.66" y1="290.71" x2="565.08" y2="352.08" stroke="#000000" stroke-width="1" stroke-linecap="round"/>
<line x1="565.08" y1="352.08" x2="158.18" y2="725.39" stroke="#000000" stroke-width="1" stroke-linecap="round"/>
<line x1="158.18" y1="725.39" x2="921.23" y2="493.37" stroke="#000000" stroke-width="1" stroke-linecap="round"/>
<polygon points="158.18,725.39 565.08,352.08 513.42,348.33 102.03,715.81" fill="#a9002e" stroke="#a9002e" stroke-width="0.6"/>
<line x1="158.18" y1="725.39" x2="565.08" y2="352.08" stroke="#000000" stroke-width="1" stroke-linecap="round"/>
<line x1="565.08" y1="352.08" x2="513.42" y2="348.33" stroke="#000000" stroke-width="1" stroke-linecap="round"/>
<line x1="513.42" y1="348.33" x2="102.03" y2="715.81" stroke="#000000" stroke-width="1" stroke-linecap="round"/>
<line x1="102.03" y1="715.81" x2="158.18" y2="725.39" stroke="#000000" stroke-width="1" stroke-linecap="round"/>
</svg>