<svg xmlns="http://www.w3.org/2000/svg" viewBox="0 0 1920 1080" width="1920" height="1080">
<rect width="1920" height="1080" fill="#ffffff"/>
<polygon points="811.82,96.86 816.05,97.73 896.49,71.69 816.05,97.73 826.83,98.57 902.38,71.97 826.83,98.57 816.05,97.73 811.82,96.86 736.39,138.07 741.24,140.07 736.39,138.07 670.74,193.27 675.46,197.06 670.74,193.27 617.57,260.08 621.71,266.30 640.68,272.49 692.67,200.80 755.78,142.02 692.67,200.80 640.68,272.49 674.74,278.36 722.44,204.32 779.87,143.84 843.92,99.35 911.34,72.22 923.05,72.43 911.34,72.22 843.92,99.35 779.87,143.84 722.44,204.32 674.74,278.36 640.68,272.49 621.71,266.30 617.57,260.08 578.98,335.59 582.45,344.71 602.43,353.84 639.43,362.54 602.43,353.84 582.45,344.71 578.98,335.59 556.38,416.60 559.35,428.77 579.83,440.98 618.47,452.66 674.85,463.17 692.96,370.35 723.33,283.61 764.12,207.44 812.87,145.44 866.79,100.03 812.87,145.44 764.12,207.44 816.26,209.99 853.58,146.74 894.59,100.58 937.07,72.60 894.59,100.58 853.58,146.74 816.26,209.99 764.12,207.44 723.33,283.61 692.96,370.35 674.85,463.17 747.25,471.86 761.33,376.78 784.84,287.91 761.33,376.78 747.25,471.86 832.54,478.13 841.58,381.42 856.63,291.00 876.65,211.81 900.31,147.66 926.18,100.96 952.83,72.73 926.18,100.96 900.31,147.66 876.65,211.81 942.37,212.79 950.90,148.16 960.17,101.17 969.69,72.79 960.17,101.17 950.90,148.16 942.37,212.79 876.65,211.81 856.63,291.00 841.58,381.42 832.54,478.13 926.29,481.52 929.63,383.92 935.11,292.66 929.63,383.92 926.29,481.52 1023.16,481.76 1020.54,384.10 1016.05,292.78 1010.03,212.86 1002.88,148.19 995.03,101.18 986.94,72.79 995.03,101.18 1002.88,148.19 1053.68,147.77 1029.16,101.01 1003.86,72.74 1029.16,101.01 1053.68,147.77 1002.88,148.19 1010.03,212.86 1016.05,292.78 1020.54,384.10 1023.16,481.76 1117.45,478.83 1109.07,381.93 1094.95,291.34 1076.07,212.01 1094.95,291.34 1109.07,381.93 1117.45,478.83 1203.74,472.96 1190.24,377.60 1167.52,288.45 1137.07,210.31 1100.84,146.90 1061.01,100.65 1019.74,72.63 1061.01,100.65 1100.84,146.90 1142.15,145.66 1089.18,100.12 1033.92,72.46 1089.18,100.12 1142.15,145.66 1100.84,146.90 1137.07,210.31 1167.52,288.45 1190.24,377.60 1203.74,472.96 1277.48,464.59 1259.84,371.40 1230.08,284.31 1190.04,207.86 1230.08,284.31 1259.84,371.40 1314.78,363.77 1279.89,279.19 1232.69,204.82 1175.86,144.10 1112.50,99.46 1045.84,72.25 1112.50,99.46 1130.09,98.69 1055.03,72.01 1130.09,98.69 1112.50,99.46 1175.86,144.10 1232.69,204.82 1279.89,279.19 1314.78,363.77 1353.26,355.17 1315.24,273.39 1263.51,201.34 1200.73,142.30 1263.51,201.34 1315.24,273.39 1335.46,267.23 1281.77,197.62 1216.06,140.36 1141.38,97.86 1061.17,71.73 1064.07,71.45 1061.17,71.73 1141.38,97.86 1216.06,140.36 1281.77,197.62 1335.46,267.23 1315.24,273.39 1353.26,355.17 1374.66,346.08 1353.26,355.17 1314.78,363.77 1259.84,371.40 1277.48,464.59 1335.40,454.31 1375.63,442.76 1397.63,430.59 1375.63,442.76 1335.40,454.31 1277.48,464.59 1203.74,472.96 1117.45,478.83 1023.16,481.76 926.29,481.52 832.54,478.13 747.25,471.86 674.85,463.17 618.47,452.66 579.83,440.98 559.35,428.77 556.38,416.60 550.46,499.75 561.17,581.66 564.25,598.74 553.28,514.70 564.25,598.74 584.62,615.86 573.88,529.72 584.62,615.86 564.25,598.74 591.42,677.33 633.28,747.34 687.71,806.15 704.43,822.35 651.87,765.20 611.17,695.48 651.87,765.20 704.43,822.35 733.09,837.57 684.97,782.11 647.47,712.76 622.89,632.23 612.93,544.10 670.04,557.06 612.93,544.10 622.89,632.23 647.47,712.76 684.97,782.11 733.09,837.57 704.43,822.35 766.18,865.04 789.18,877.40 850.45,900.81 872.08,908.31 820.57,888.25 773.04,851.04 731.98,797.18 699.80,728.25 678.63,646.95 699.80,728.25 731.98,797.18 773.04,851.04 822.89,862.02 791.34,809.54 766.51,741.01 750.13,659.12 743.49,567.77 830.08,575.51 743.49,567.77 750.13,659.12 766.51,741.01 791.34,809.54 822.89,862.02 773.04,851.04 820.57,888.25 872.08,908.31 898.33,914.33 859.21,897.04 898.33,914.33 928.12,918.58 903.49,903.27 880.53,869.86 860.51,818.41 844.71,750.20 834.28,667.90 844.71,750.20 860.51,818.41 936.05,823.17 930.44,755.15 926.75,672.63 925.32,579.69 926.75,672.63 930.44,755.15 936.05,823.17 860.51,818.41 880.53,869.86 903.49,903.27 928.12,918.58 960.16,920.85 951.38,906.61 943.19,874.06 951.38,906.61 960.16,920.85 993.02,921.01 1000.58,906.84 1007.69,874.36 1013.93,823.51 1018.92,755.49 1022.29,672.97 1023.75,579.98 1022.29,672.97 1018.92,755.49 1013.93,823.51 1089.88,819.39 1105.12,751.21 1115.29,668.87 1119.54,576.37 1115.29,668.87 1105.12,751.21 1089.88,819.39 1013.93,823.51 1007.69,874.36 1000.58,906.84 993.02,921.01 1025.19,919.05 1048.69,903.96 1070.66,870.72 1048.69,903.96 1025.19,919.05 1055.23,915.08 1093.38,898.13 1128.88,863.40 1159.80,811.10 1184.22,742.62 1200.44,660.66 1207.16,569.13 1200.44,660.66 1184.22,742.62 1252.13,730.35 1273.26,648.95 1281.98,558.81 1273.26,648.95 1252.13,730.35 1184.22,742.62 1159.80,811.10 1128.88,863.40 1093.38,898.13 1055.23,915.08 1081.84,909.31 1132.60,889.70 1179.54,852.85 1220.18,799.21 1179.54,852.85 1132.60,889.70 1081.84,909.31 1103.90,902.01 1164.68,879.12 1220.44,839.70 1268.39,784.49 1305.86,715.20 1330.53,634.54 1340.67,546.14 1330.53,634.54 1370.37,618.36 1381.35,531.92 1370.37,618.36 1330.53,634.54 1305.86,715.20 1268.39,784.49 1220.44,839.70 1164.68,879.12 1188.44,866.95 1250.12,824.69 1302.75,767.80 1343.61,698.13 1302.75,767.80 1250.12,824.69 1267.86,808.59 1322.58,750.02 1364.76,680.05 1392.25,601.30 1403.49,516.94 1392.25,601.30 1396.69,584.17 1407.70,501.94 1401.95,418.39 1379.40,336.93 1340.76,260.99 1287.46,193.83 1221.66,138.37 1146.13,96.99 1144.37,96.12 1063.68,71.16 979.00,62.75 894.49,71.12 893.85,71.41 894.49,71.12 814.07,95.99" fill="#e7a32c" stroke="#000000" stroke-width="0.5" stroke-linejoin="round"/>
<polygon points="1462.81,446.88 1479.08,473.87 1830.17,81.19 1819.87,48.03 870.81,572.95 924.92,735.07 948.87,756.33 1479.08,473.87" fill="#052fe7" stroke="#000000" stroke-width="0.5" stroke-linejoin="round"/>
<polygon points="565.08,352.08 513.42,348.33 102.03,715.81 158.18,725.39 921.23,493.37 920.66,290.71 875.28,288.23 513.42,348.33" fill="#e70040" stroke="#000000" stroke-width="0.5" stroke-linejoin="round"/>
</svg>