<svg xmlns="http://www.w3.org/2000/svg" viewBox="0 0 1920 1080" width="1920" height="1080">
<rect width="1920" height="1080" fill="#ffffff"/>
<polygon points="736.39,138.07 670.74,193.27 617.57,260.08 578.98,335.59 556.38,416.60 550.46,499.75 561.17,581.66 564.25,598.74 591.42,677.33 633.28,747.34 687.71,806.15 704.43,822.35 766.18,865.04 789.18,877.40 850.45,900.81 872.08,908.31 898.33,914.33 928.12,918.58 960.16,920.85 993.02,921.01 1025.19,919.05 1055.23,915.08 1081.84,909.31 1103.90,902.01 1164.68,879.12 1188.44,866.95 1250.12,824.69 1267.86,808.59 1322.58,750.02 1364.76,680.05 1392.25,601.30 1396.69,584.17 1407.70,501.94 1401.95,418.39 1379.40,336.93 1340.76,260.99 1287.46,193.83 1221.66,138.37 1146.13,96.99 1144.37,96.12 1063.68,71.16 979.00,62.75 894.49,71.12 814.07,95.99 811.82,96.86" fill="#e7a32c" stroke="#000000" stroke-width="4" stroke-linejoin="round"/>
<polygon points="1830.17,81.19 1819.87,48.03 870.81,572.95 924.92,735.07 948.87,756.33 1479.08,473.87" fill="#052fe7" stroke="#000000" stroke-width="4" stroke-linejoin="round"/>
<line x1="924.92" y1="735.07" x2="1462.81" y2="446.88" stroke="#000000" stroke-width="4" stroke-linecap="round"/>
<line x1="1462.81" y1="446.88" x2="1819.87" y2="48.03" stroke="#000000" stroke-width="4" stroke-linecap="round"/>
<line x1="1462.81" y1="446.88" x2="1479.08" y2="473.87" stroke="#000000" stroke-width="4" stroke-linecap="round"/>
<polygon points="102.03,715.81 158.18,725.39 921.23,493.37 920.66,290.71 875.28,288.23 513.42,348.33" fill="#e70040" stroke="#000000" stroke-width="4" stroke-linejoin="round"/>
<line x1="920.66" y1="290.71" x2="565.08" y2="352.08" stroke="#000000" stroke-width="4" stroke-linecap="round"/>
<line x1="565.08" y1="352.08" x2="158.18" y2="725.39" stroke="#000000" stroke-width="4" stroke-linecap="round"/>
<line x1="565.08" y1="352.08" x2="513.42" y2="348.33" stroke="#000000" stroke-width="4" stroke-linecap="round"/>
</svg>