<svg xmlns="http://www.w3.org/2000/svg" viewBox="0 0 1920 1080" width="1920" height="1080">
<rect width="1920" height="1080" fill="#ffffff"/>
<path d="M1063.68,71.16 L979.00,62.75 L894.49,71.12 L814.07,95.99 L811.82,96.86 L736.39,138.07 L670.74,193.27 L617.57,260.08 L578.98,335.59 L556.38,416.60 L550.46,499.75 L561.17,581.66 L564.25,598.74 L591.42,677.33 L633.28,747.34 L687.71,806.15 L704.43,822.35 L766.18,865.04 L789.18,877.40 L850.45,900.81 L872.08,908.31 L898.33,914.33 L928.12,918.58 L960.16,920.85 L993.02,921.01 L1025.19,919.05 L1055.23,915.08 L1081.84,909.31 L1103.90,902.01 L1164.68,879.12 L1188.44,866.95 L1250.12,824.69 L1267.86,808.59 L1322.58,750.02 L1364.76,680.05 L1392.25,601.30 L1396.69,584.17 L1407.70,501.94 L1401.95,418.39 L1379.40,336.93 L1340.76,260.99 L1287.46,193.83 L1221.66,138.37 L1146.13,96.99 L1144.37,96.12 Z" fill="#e7a32c" fill-rule="evenodd" stroke="#000000" stroke-width="2" stroke-linejoin="round" stroke-linecap="round"/>
<polygon points="870.81,572.95 924.92,735.07 1462.81,446.88 1819.87,48.03" fill="#052fe7" stroke="#000000" stroke-width="2" stroke-linejoin="round"/>
<polygon points="924.92,735.07 948.87,756.33 1479.08,473.87 1462.81,446.88" fill="#052fe7" stroke="#000000" stroke-width="2" stroke-linejoin="round"/>
<polygon points="1819.87,48.03 1462.81,446.88 1479.08,473.87 1830.17,81.19" fill="#052fe7" stroke="#000000" stroke-width="2" stroke-linejoin="round"/>
<polygon points="920.66,290.71 875.28,288.23 513.42,348.33 565.08,352.08" fill="#e70040" stroke="#000000" stroke-width="2" stroke-linejoin="round"/>
<polygon points="921.23,493.37 920.66,290.71 565.08,352.08 158.18,725.39" fill="#e70040" stroke="#000000" stroke-width="2" stroke-linejoin="round"/>
<polygon points="158.18,725.39 565.08,352.08 513.42,348.33 102.03,715.81" fill="#e70040" stroke="#000000" stroke-width="2" stroke-linejoin="round"/>
</svg>