<svg xmlns="http://www.w3.org/2000/svg" viewBox="0 0 1920 1080" width="1920" height="1080">
<rect width="1920" height="1080" fill="#ffffff"/>
<polygon points="872.08,908.31 820.57,888.25 789.18,877.40 850.45,900.81" fill="#b17c1f" stroke="#000000" stroke-width="1" stroke-linejoin="round"/>
<polygon points="564.25,598.74 553.28,514.70 550.46,499.75 561.17,581.66" fill="#382504" stroke="#000000" stroke-width="1" stroke-linejoin="round"/>
<polygon points="704.43,822.35 651.87,765.20 633.28,747.34 687.71,806.15" fill="#6e4b0f" stroke="#000000" stroke-width="1" stroke-linejoin="round"/>
<polygon points="1103.90,902.01 1164.68,879.12 1132.60,889.70 1081.84,909.31" fill="#dd9b2a" stroke="#000000" stroke-width="1" stroke-linejoin="round"/>
<polygon points="811.82,96.86 893.85,71.41 894.49,71.12 814.07,95.99" fill="#382504" stroke="#000000" stroke-width="1" stroke-linejoin="round"/>
<polygon points="1267.86,808.59 1322.58,750.02 1302.75,767.80 1250.12,824.69" fill="#e29f2b" stroke="#000000" stroke-width="1" stroke-linejoin="round"/>
<polygon points="1396.69,584.17 1407.70,501.94 1403.49,516.94 1392.25,601.30" fill="#cb8f26" stroke="#000000" stroke-width="1" stroke-linejoin="round"/>
<polygon points="1144.37,96.12 1063.68,71.16 1064.07,71.45 1146.13,96.99" fill="#382504" stroke="#000000" stroke-width="1" stroke-linejoin="round"/>
<polygon points="893.85,71.41 979.00,62.75 894.49,71.12" fill="#382504" stroke="#000000" stroke-width="1" stroke-linejoin="round"/>
<polygon points="789.18,877.40 733.09,837.57 704.43,822.35 766.18,865.04" fill="#9a6b1a" stroke="#000000" stroke-width="1" stroke-linejoin="round"/>
<polygon points="1063.68,71.16 979.00,62.75 1064.07,71.45" fill="#382504" stroke="#000000" stroke-width="1" stroke-linejoin="round"/>
<polygon points="553.28,514.70 559.35,428.77 556.38,416.60 550.46,499.75" fill="#382504" stroke="#000000" stroke-width="1" stroke-linejoin="round"/>
<polygon points="1188.44,866.95 1250.12,824.69 1220.44,839.70 1164.68,879.12" fill="#e3a02b" stroke="#000000" stroke-width="1" stroke-linejoin="round"/>
<polygon points="896.49,71.69 979.00,62.75 893.85,71.41" fill="#382504" stroke="#000000" stroke-width="1" stroke-linejoin="round"/>
<polygon points="898.33,914.33 859.21,897.04 820.57,888.25 872.08,908.31" fill="#bb8422" stroke="#000000" stroke-width="1" stroke-linejoin="round"/>
<polygon points="1064.07,71.45 979.00,62.75 1061.17,71.73" fill="#382504" stroke="#000000" stroke-width="1" stroke-linejoin="round"/>
<polygon points="1081.84,909.31 1132.60,889.70 1093.38,898.13 1055.23,915.08" fill="#dd9c2a" stroke="#000000" stroke-width="1" stroke-linejoin="round"/>
<polygon points="1407.70,501.94 1401.95,418.39 1397.63,430.59 1403.49,516.94" fill="#bf8623" stroke="#000000" stroke-width="1" stroke-linejoin="round"/>
<polygon points="559.35,428.77 582.45,344.71 578.98,335.59 556.38,416.60" fill="#382504" stroke="#000000" stroke-width="1" stroke-linejoin="round"/>
<polygon points="651.87,765.20 611.17,695.48 591.42,677.33 633.28,747.34" fill="#4b3207" stroke="#000000" stroke-width="1" stroke-linejoin="round"/>
<polygon points="816.05,97.73 896.49,71.69 893.85,71.41 811.82,96.86" fill="#382504" stroke="#000000" stroke-width="1" stroke-linejoin="round"/>
<polygon points="902.38,71.97 979.00,62.75 896.49,71.69" fill="#382504" stroke="#000000" stroke-width="1" stroke-linejoin="round"/>
<polygon points="1061.17,71.73 979.00,62.75 1055.03,72.01" fill="#382504" stroke="#000000" stroke-width="1" stroke-linejoin="round"/>
<polygon points="1146.13,96.99 1064.07,71.45 1061.17,71.73 1141.38,97.86" fill="#382504" stroke="#000000" stroke-width="1" stroke-linejoin="round"/>
<polygon points="582.45,344.71 621.71,266.30 617.57,260.08 578.98,335.59" fill="#382504" stroke="#000000" stroke-width="1" stroke-linejoin="round"/>
<polygon points="741.24,140.07 816.05,97.73 811.82,96.86 736.39,138.07" fill="#382504" stroke="#000000" stroke-width="1" stroke-linejoin="round"/>
<polygon points="1401.95,418.39 1379.40,336.93 1374.66,346.08 1397.63,430.59" fill="#ae7a1f" stroke="#000000" stroke-width="1" stroke-linejoin="round"/>
<polygon points="1322.58,750.02 1364.76,680.05 1343.61,698.13 1302.75,767.80" fill="#e29f2b" stroke="#000000" stroke-width="1" stroke-linejoin="round"/>
<polygon points="928.12,918.58 903.49,903.27 859.21,897.04 898.33,914.33" fill="#c58a24" stroke="#000000" stroke-width="1" stroke-linejoin="round"/>
<polygon points="621.71,266.30 675.46,197.06 670.74,193.27 617.57,260.08" fill="#382504" stroke="#000000" stroke-width="1" stroke-linejoin="round"/>
<polygon points="911.34,72.22 979.00,62.75 902.38,71.97" fill="#382504" stroke="#000000" stroke-width="1" stroke-linejoin="round"/>
<polygon points="675.46,197.06 741.24,140.07 736.39,138.07 670.74,193.27" fill="#382504" stroke="#000000" stroke-width="1" stroke-linejoin="round"/>
<polygon points="1055.23,915.08 1093.38,898.13 1048.69,903.96 1025.19,919.05" fill="#db9b2a" stroke="#000000" stroke-width="1" stroke-linejoin="round"/>
<polygon points="1055.03,72.01 979.00,62.75 1045.84,72.25" fill="#382504" stroke="#000000" stroke-width="1" stroke-linejoin="round"/>
<polygon points="1221.66,138.37 1146.13,96.99 1141.38,97.86 1216.06,140.36" fill="#382504" stroke="#000000" stroke-width="1" stroke-linejoin="round"/>
<polygon points="1379.40,336.93 1340.76,260.99 1335.46,267.23 1374.66,346.08" fill="#976919" stroke="#000000" stroke-width="1" stroke-linejoin="round"/>
<polygon points="1287.46,193.83 1221.66,138.37 1216.06,140.36 1281.77,197.62" fill="#452e06" stroke="#000000" stroke-width="1" stroke-linejoin="round"/>
<polygon points="923.05,72.43 979.00,62.75 911.34,72.22" fill="#382504" stroke="#000000" stroke-width="1" stroke-linejoin="round"/>
<polygon points="1340.76,260.99 1287.46,193.83 1281.77,197.62 1335.46,267.23" fill="#785312" stroke="#000000" stroke-width="1" stroke-linejoin="round"/>
<polygon points="1045.84,72.25 979.00,62.75 1033.92,72.46" fill="#382504" stroke="#000000" stroke-width="1" stroke-linejoin="round"/>
<polygon points="960.16,920.85 951.38,906.61 903.49,903.27 928.12,918.58" fill="#cd9026" stroke="#000000" stroke-width="1" stroke-linejoin="round"/>
<polygon points="820.57,888.25 773.04,851.04 733.09,837.57 789.18,877.40" fill="#ab781e" stroke="#000000" stroke-width="1" stroke-linejoin="round"/>
<polygon points="1025.19,919.05 1048.69,903.96 1000.58,906.84 993.02,921.01" fill="#d89829" stroke="#000000" stroke-width="1" stroke-linejoin="round"/>
<polygon points="826.83,98.57 902.38,71.97 896.49,71.69 816.05,97.73" fill="#382504" stroke="#000000" stroke-width="1" stroke-linejoin="round"/>
<polygon points="733.09,837.57 684.97,782.11 651.87,765.20 704.43,822.35" fill="#8b6116" stroke="#000000" stroke-width="1" stroke-linejoin="round"/>
<polygon points="611.17,695.48 584.62,615.86 564.25,598.74 591.42,677.33" fill="#382504" stroke="#000000" stroke-width="1" stroke-linejoin="round"/>
<polygon points="993.02,921.01 1000.58,906.84 951.38,906.61 960.16,920.85" fill="#d39528" stroke="#000000" stroke-width="1" stroke-linejoin="round"/>
<polygon points="937.07,72.60 979.00,62.75 923.05,72.43" fill="#382504" stroke="#000000" stroke-width="1" stroke-linejoin="round"/>
<polygon points="1141.38,97.86 1061.17,71.73 1055.03,72.01 1130.09,98.69" fill="#382504" stroke="#000000" stroke-width="1" stroke-linejoin="round"/>
<polygon points="1033.92,72.46 979.00,62.75 1019.74,72.63" fill="#382504" stroke="#000000" stroke-width="1" stroke-linejoin="round"/>
<polygon points="1164.68,879.12 1220.44,839.70 1179.54,852.85 1132.60,889.70" fill="#e6a22c" stroke="#000000" stroke-width="1" stroke-linejoin="round"/>
<polygon points="952.83,72.73 979.00,62.75 937.07,72.60" fill="#382504" stroke="#000000" stroke-width="1" stroke-linejoin="round"/>
<polygon points="1019.74,72.63 979.00,62.75 1003.86,72.74" fill="#382504" stroke="#000000" stroke-width="1" stroke-linejoin="round"/>
<polygon points="1250.12,824.69 1302.75,767.80 1268.39,784.49 1220.44,839.70" fill="#e7a32d" stroke="#000000" stroke-width="1" stroke-linejoin="round"/>
<polygon points="969.69,72.79 979.00,62.75 952.83,72.73" fill="#382504" stroke="#000000" stroke-width="1" stroke-linejoin="round"/>
<polygon points="1003.86,72.74 979.00,62.75 986.94,72.79" fill="#382504" stroke="#000000" stroke-width="1" stroke-linejoin="round"/>
<polygon points="1364.76,680.05 1392.25,601.30 1370.37,618.36 1343.61,698.13" fill="#de9c2a" stroke="#000000" stroke-width="1" stroke-linejoin="round"/>
<polygon points="986.94,72.79 979.00,62.75 969.69,72.79" fill="#382504" stroke="#000000" stroke-width="1" stroke-linejoin="round"/>
<polygon points="843.92,99.35 911.34,72.22 902.38,71.97 826.83,98.57" fill="#382504" stroke="#000000" stroke-width="1" stroke-linejoin="round"/>
<polygon points="755.78,142.02 826.83,98.57 816.05,97.73 741.24,140.07" fill="#382504" stroke="#000000" stroke-width="1" stroke-linejoin="round"/>
<polygon points="584.62,615.86 573.88,529.72 553.28,514.70 564.25,598.74" fill="#382504" stroke="#000000" stroke-width="1" stroke-linejoin="round"/>
<polygon points="1130.09,98.69 1055.03,72.01 1045.84,72.25 1112.50,99.46" fill="#382504" stroke="#000000" stroke-width="1" stroke-linejoin="round"/>
<polygon points="1216.06,140.36 1141.38,97.86 1130.09,98.69 1200.73,142.30" fill="#382504" stroke="#000000" stroke-width="1" stroke-linejoin="round"/>
<polygon points="859.21,897.04 822.89,862.02 773.04,851.04 820.57,888.25" fill="#ba8322" stroke="#000000" stroke-width="1" stroke-linejoin="round"/>
<polygon points="1392.25,601.30 1403.49,516.94 1381.35,531.92 1370.37,618.36" fill="#d69728" stroke="#000000" stroke-width="1" stroke-linejoin="round"/>
<polygon points="1132.60,889.70 1179.54,852.85 1128.88,863.40 1093.38,898.13" fill="#e6a22c" stroke="#000000" stroke-width="1" stroke-linejoin="round"/>
<polygon points="692.67,200.80 755.78,142.02 741.24,140.07 675.46,197.06" fill="#382504" stroke="#000000" stroke-width="1" stroke-linejoin="round"/>
<polygon points="573.88,529.72 579.83,440.98 559.35,428.77 553.28,514.70" fill="#382504" stroke="#000000" stroke-width="1" stroke-linejoin="round"/>
<polygon points="684.97,782.11 647.47,712.76 611.17,695.48 651.87,765.20" fill="#785312" stroke="#000000" stroke-width="1" stroke-linejoin="round"/>
<polygon points="866.79,100.03 923.05,72.43 911.34,72.22 843.92,99.35" fill="#382504" stroke="#000000" stroke-width="1" stroke-linejoin="round"/>
<polygon points="1112.50,99.46 1045.84,72.25 1033.92,72.46 1089.18,100.12" fill="#382504" stroke="#000000" stroke-width="1" stroke-linejoin="round"/>
<polygon points="1281.77,197.62 1216.06,140.36 1200.73,142.30 1263.51,201.34" fill="#5d3f0b" stroke="#000000" stroke-width="1" stroke-linejoin="round"/>
<polygon points="640.68,272.49 692.67,200.80 675.46,197.06 621.71,266.30" fill="#382504" stroke="#000000" stroke-width="1" stroke-linejoin="round"/>
<polygon points="1302.75,767.80 1343.61,698.13 1305.86,715.20 1268.39,784.49" fill="#e8a42d" stroke="#000000" stroke-width="1" stroke-linejoin="round"/>
<polygon points="579.83,440.98 602.43,353.84 582.45,344.71 559.35,428.77" fill="#382504" stroke="#000000" stroke-width="1" stroke-linejoin="round"/>
<polygon points="1403.49,516.94 1397.63,430.59 1375.63,442.76 1381.35,531.92" fill="#cb8f26" stroke="#000000" stroke-width="1" stroke-linejoin="round"/>
<polygon points="773.04,851.04 731.98,797.18 684.97,782.11 733.09,837.57" fill="#a2711c" stroke="#000000" stroke-width="1" stroke-linejoin="round"/>
<polygon points="602.43,353.84 640.68,272.49 621.71,266.30 582.45,344.71" fill="#382504" stroke="#000000" stroke-width="1" stroke-linejoin="round"/>
<polygon points="894.59,100.58 937.07,72.60 923.05,72.43 866.79,100.03" fill="#382504" stroke="#000000" stroke-width="1" stroke-linejoin="round"/>
<polygon points="779.87,143.84 843.92,99.35 826.83,98.57 755.78,142.02" fill="#382504" stroke="#000000" stroke-width="1" stroke-linejoin="round"/>
<polygon points="1335.46,267.23 1281.77,197.62 1263.51,201.34 1315.24,273.39" fill="#895f16" stroke="#000000" stroke-width="1" stroke-linejoin="round"/>
<polygon points="1089.18,100.12 1033.92,72.46 1019.74,72.63 1061.01,100.65" fill="#382504" stroke="#000000" stroke-width="1" stroke-linejoin="round"/>
<polygon points="1220.44,839.70 1268.39,784.49 1220.18,799.21 1179.54,852.85" fill="#eaa52d" stroke="#000000" stroke-width="1" stroke-linejoin="round"/>
<polygon points="903.49,903.27 880.53,869.86 822.89,862.02 859.21,897.04" fill="#c78c25" stroke="#000000" stroke-width="1" stroke-linejoin="round"/>
<polygon points="1397.63,430.59 1374.66,346.08 1353.26,355.17 1375.63,442.76" fill="#bb8322" stroke="#000000" stroke-width="1" stroke-linejoin="round"/>
<polygon points="1200.73,142.30 1130.09,98.69 1112.50,99.46 1175.86,144.10" fill="#382504" stroke="#000000" stroke-width="1" stroke-linejoin="round"/>
<polygon points="1093.38,898.13 1128.88,863.40 1070.66,870.72 1048.69,903.96" fill="#e4a12c" stroke="#000000" stroke-width="1" stroke-linejoin="round"/>
<polygon points="1374.66,346.08 1335.46,267.23 1315.24,273.39 1353.26,355.17" fill="#a6741d" stroke="#000000" stroke-width="1" stroke-linejoin="round"/>
<polygon points="926.18,100.96 952.83,72.73 937.07,72.60 894.59,100.58" fill="#382504" stroke="#000000" stroke-width="1" stroke-linejoin="round"/>
<polygon points="1061.01,100.65 1019.74,72.63 1003.86,72.74 1029.16,101.01" fill="#382504" stroke="#000000" stroke-width="1" stroke-linejoin="round"/>
<polygon points="647.47,712.76 622.89,632.23 584.62,615.86 611.17,695.48" fill="#5e400c" stroke="#000000" stroke-width="1" stroke-linejoin="round"/>
<polygon points="960.17,101.17 969.69,72.79 952.83,72.73 926.18,100.96" fill="#382504" stroke="#000000" stroke-width="1" stroke-linejoin="round"/>
<polygon points="951.38,906.61 943.19,874.06 880.53,869.86 903.49,903.27" fill="#d19327" stroke="#000000" stroke-width="1" stroke-linejoin="round"/>
<polygon points="1029.16,101.01 1003.86,72.74 986.94,72.79 995.03,101.18" fill="#382504" stroke="#000000" stroke-width="1" stroke-linejoin="round"/>
<polygon points="1048.69,903.96 1070.66,870.72 1007.69,874.36 1000.58,906.84" fill="#e09e2b" stroke="#000000" stroke-width="1" stroke-linejoin="round"/>
<polygon points="995.03,101.18 986.94,72.79 969.69,72.79 960.17,101.17" fill="#382504" stroke="#000000" stroke-width="1" stroke-linejoin="round"/>
<polygon points="1000.58,906.84 1007.69,874.36 943.19,874.06 951.38,906.61" fill="#da9929" stroke="#000000" stroke-width="1" stroke-linejoin="round"/>
<polygon points="1343.61,698.13 1370.37,618.36 1330.53,634.54 1305.86,715.20" fill="#e5a22c" stroke="#000000" stroke-width="1" stroke-linejoin="round"/>
<polygon points="722.44,204.32 779.87,143.84 755.78,142.02 692.67,200.80" fill="#382504" stroke="#000000" stroke-width="1" stroke-linejoin="round"/>
<polygon points="812.87,145.44 866.79,100.03 843.92,99.35 779.87,143.84" fill="#382504" stroke="#000000" stroke-width="1" stroke-linejoin="round"/>
<polygon points="1175.86,144.10 1112.50,99.46 1089.18,100.12 1142.15,145.66" fill="#382504" stroke="#000000" stroke-width="1" stroke-linejoin="round"/>
<polygon points="1263.51,201.34 1200.73,142.30 1175.86,144.10 1232.69,204.82" fill="#6a490f" stroke="#000000" stroke-width="1" stroke-linejoin="round"/>
<polygon points="822.89,862.02 791.34,809.54 731.98,797.18 773.04,851.04" fill="#b67f21" stroke="#000000" stroke-width="1" stroke-linejoin="round"/>
<polygon points="622.89,632.23 612.93,544.10 573.88,529.72 584.62,615.86" fill="#382504" stroke="#000000" stroke-width="1" stroke-linejoin="round"/>
<polygon points="731.98,797.18 699.80,728.25 647.47,712.76 684.97,782.11" fill="#966919" stroke="#000000" stroke-width="1" stroke-linejoin="round"/>
<polygon points="1179.54,852.85 1220.18,799.21 1159.80,811.10 1128.88,863.40" fill="#eba62d" stroke="#000000" stroke-width="1" stroke-linejoin="round"/>
<polygon points="1268.39,784.49 1305.86,715.20 1252.13,730.35 1220.18,799.21" fill="#eba62d" stroke="#000000" stroke-width="1" stroke-linejoin="round"/>
<polygon points="674.74,278.36 722.44,204.32 692.67,200.80 640.68,272.49" fill="#382504" stroke="#000000" stroke-width="1" stroke-linejoin="round"/>
<polygon points="1370.37,618.36 1381.35,531.92 1340.67,546.14 1330.53,634.54" fill="#de9d2a" stroke="#000000" stroke-width="1" stroke-linejoin="round"/>
<polygon points="853.58,146.74 894.59,100.58 866.79,100.03 812.87,145.44" fill="#382504" stroke="#000000" stroke-width="1" stroke-linejoin="round"/>
<polygon points="612.93,544.10 618.47,452.66 579.83,440.98 573.88,529.72" fill="#382504" stroke="#000000" stroke-width="1" stroke-linejoin="round"/>
<polygon points="1315.24,273.39 1263.51,201.34 1232.69,204.82 1279.89,279.19" fill="#936618" stroke="#000000" stroke-width="1" stroke-linejoin="round"/>
<polygon points="1142.15,145.66 1089.18,100.12 1061.01,100.65 1100.84,146.90" fill="#382504" stroke="#000000" stroke-width="1" stroke-linejoin="round"/>
<polygon points="639.43,362.54 674.74,278.36 640.68,272.49 602.43,353.84" fill="#382504" stroke="#000000" stroke-width="1" stroke-linejoin="round"/>
<polygon points="618.47,452.66 639.43,362.54 602.43,353.84 579.83,440.98" fill="#382504" stroke="#000000" stroke-width="1" stroke-linejoin="round"/>
<polygon points="1381.35,531.92 1375.63,442.76 1335.40,454.31 1340.67,546.14" fill="#d39528" stroke="#000000" stroke-width="1" stroke-linejoin="round"/>
<polygon points="880.53,869.86 860.51,818.41 791.34,809.54 822.89,862.02" fill="#c58b24" stroke="#000000" stroke-width="1" stroke-linejoin="round"/>
<polygon points="764.12,207.44 812.87,145.44 779.87,143.84 722.44,204.32" fill="#382504" stroke="#000000" stroke-width="1" stroke-linejoin="round"/>
<polygon points="1353.26,355.17 1315.24,273.39 1279.89,279.19 1314.78,363.77" fill="#af7a1f" stroke="#000000" stroke-width="1" stroke-linejoin="round"/>
<polygon points="1128.88,863.40 1159.80,811.10 1089.88,819.39 1070.66,870.72" fill="#e9a42d" stroke="#000000" stroke-width="1" stroke-linejoin="round"/>
<polygon points="1375.63,442.76 1353.26,355.17 1314.78,363.77 1335.40,454.31" fill="#c48924" stroke="#000000" stroke-width="1" stroke-linejoin="round"/>
<polygon points="900.31,147.66 926.18,100.96 894.59,100.58 853.58,146.74" fill="#382504" stroke="#000000" stroke-width="1" stroke-linejoin="round"/>
<polygon points="1232.69,204.82 1175.86,144.10 1142.15,145.66 1190.04,207.86" fill="#714d10" stroke="#000000" stroke-width="1" stroke-linejoin="round"/>
<polygon points="1100.84,146.90 1061.01,100.65 1029.16,101.01 1053.68,147.77" fill="#382504" stroke="#000000" stroke-width="1" stroke-linejoin="round"/>
<polygon points="699.80,728.25 678.63,646.95 622.89,632.23 647.47,712.76" fill="#875d15" stroke="#000000" stroke-width="1" stroke-linejoin="round"/>
<polygon points="1305.86,715.20 1330.53,634.54 1273.26,648.95 1252.13,730.35" fill="#e9a42d" stroke="#000000" stroke-width="1" stroke-linejoin="round"/>
<polygon points="950.90,148.16 960.17,101.17 926.18,100.96 900.31,147.66" fill="#382504" stroke="#000000" stroke-width="1" stroke-linejoin="round"/>
<polygon points="943.19,874.06 936.05,823.17 860.51,818.41 880.53,869.86" fill="#d29427" stroke="#000000" stroke-width="1" stroke-linejoin="round"/>
<polygon points="791.34,809.54 766.51,741.01 699.80,728.25 731.98,797.18" fill="#ae7a1f" stroke="#000000" stroke-width="1" stroke-linejoin="round"/>
<polygon points="1053.68,147.77 1029.16,101.01 995.03,101.18 1002.88,148.19" fill="#382504" stroke="#000000" stroke-width="1" stroke-linejoin="round"/>
<polygon points="1070.66,870.72 1089.88,819.39 1013.93,823.51 1007.69,874.36" fill="#e4a12c" stroke="#000000" stroke-width="1" stroke-linejoin="round"/>
<polygon points="1002.88,148.19 995.03,101.18 960.17,101.17 950.90,148.16" fill="#382504" stroke="#000000" stroke-width="1" stroke-linejoin="round"/>
<polygon points="1220.18,799.21 1252.13,730.35 1184.22,742.62 1159.80,811.10" fill="#eca72e" stroke="#000000" stroke-width="1" stroke-linejoin="round"/>
<polygon points="1007.69,874.36 1013.93,823.51 936.05,823.17 943.19,874.06" fill="#dc9b2a" stroke="#000000" stroke-width="1" stroke-linejoin="round"/>
<polygon points="723.33,283.61 764.12,207.44 722.44,204.32 674.74,278.36" fill="#382504" stroke="#000000" stroke-width="1" stroke-linejoin="round"/>
<polygon points="816.26,209.99 853.58,146.74 812.87,145.44 764.12,207.44" fill="#382504" stroke="#000000" stroke-width="1" stroke-linejoin="round"/>
<polygon points="678.63,646.95 670.04,557.06 612.93,544.10 622.89,632.23" fill="#714e10" stroke="#000000" stroke-width="1" stroke-linejoin="round"/>
<polygon points="1279.89,279.19 1232.69,204.82 1190.04,207.86 1230.08,284.31" fill="#986a1a" stroke="#000000" stroke-width="1" stroke-linejoin="round"/>
<polygon points="1190.04,207.86 1142.15,145.66 1100.84,146.90 1137.07,210.31" fill="#714e10" stroke="#000000" stroke-width="1" stroke-linejoin="round"/>
<polygon points="1330.53,634.54 1340.67,546.14 1281.98,558.81 1273.26,648.95" fill="#e29f2b" stroke="#000000" stroke-width="1" stroke-linejoin="round"/>
<polygon points="692.96,370.35 723.33,283.61 674.74,278.36 639.43,362.54" fill="#382504" stroke="#000000" stroke-width="1" stroke-linejoin="round"/>
<polygon points="670.04,557.06 674.85,463.17 618.47,452.66 612.93,544.10" fill="#543809" stroke="#000000" stroke-width="1" stroke-linejoin="round"/>
<polygon points="860.51,818.41 844.71,750.20 766.51,741.01 791.34,809.54" fill="#c18723" stroke="#000000" stroke-width="1" stroke-linejoin="round"/>
<polygon points="674.85,463.17 692.96,370.35 639.43,362.54 618.47,452.66" fill="#382504" stroke="#000000" stroke-width="1" stroke-linejoin="round"/>
<polygon points="1314.78,363.77 1279.89,279.19 1230.08,284.31 1259.84,371.40" fill="#b47e20" stroke="#000000" stroke-width="1" stroke-linejoin="round"/>
<polygon points="1159.80,811.10 1184.22,742.62 1105.12,751.21 1089.88,819.39" fill="#e9a52d" stroke="#000000" stroke-width="1" stroke-linejoin="round"/>
<polygon points="766.51,741.01 750.13,659.12 678.63,646.95 699.80,728.25" fill="#a3721c" stroke="#000000" stroke-width="1" stroke-linejoin="round"/>
<polygon points="876.65,211.81 900.31,147.66 853.58,146.74 816.26,209.99" fill="#382504" stroke="#000000" stroke-width="1" stroke-linejoin="round"/>
<polygon points="1340.67,546.14 1335.40,454.31 1277.48,464.59 1281.98,558.81" fill="#d79829" stroke="#000000" stroke-width="1" stroke-linejoin="round"/>
<polygon points="1137.07,210.31 1100.84,146.90 1053.68,147.77 1076.07,212.01" fill="#6d4b0f" stroke="#000000" stroke-width="1" stroke-linejoin="round"/>
<polygon points="1335.40,454.31 1314.78,363.77 1259.84,371.40 1277.48,464.59" fill="#c88d25" stroke="#000000" stroke-width="1" stroke-linejoin="round"/>
<polygon points="1252.13,730.35 1273.26,648.95 1200.44,660.66 1184.22,742.62" fill="#e9a52d" stroke="#000000" stroke-width="1" stroke-linejoin="round"/>
<polygon points="784.84,287.91 816.26,209.99 764.12,207.44 723.33,283.61" fill="#382504" stroke="#000000" stroke-width="1" stroke-linejoin="round"/>
<polygon points="942.37,212.79 950.90,148.16 900.31,147.66 876.65,211.81" fill="#382504" stroke="#000000" stroke-width="1" stroke-linejoin="round"/>
<polygon points="936.05,823.17 930.44,755.15 844.71,750.20 860.51,818.41" fill="#d09227" stroke="#000000" stroke-width="1" stroke-linejoin="round"/>
<polygon points="1230.08,284.31 1190.04,207.86 1137.07,210.31 1167.52,288.45" fill="#996b1a" stroke="#000000" stroke-width="1" stroke-linejoin="round"/>
<polygon points="1076.07,212.01 1053.68,147.77 1002.88,148.19 1010.03,212.86" fill="#62430d" stroke="#000000" stroke-width="1" stroke-linejoin="round"/>
<polygon points="1089.88,819.39 1105.12,751.21 1018.92,755.49 1013.93,823.51" fill="#e4a12c" stroke="#000000" stroke-width="1" stroke-linejoin="round"/>
<polygon points="1010.03,212.86 1002.88,148.19 950.90,148.16 942.37,212.79" fill="#4e3408" stroke="#000000" stroke-width="1" stroke-linejoin="round"/>
<polygon points="1013.93,823.51 1018.92,755.49 930.44,755.15 936.05,823.17" fill="#db9b2a" stroke="#000000" stroke-width="1" stroke-linejoin="round"/>
<polygon points="750.13,659.12 743.49,567.77 670.04,557.06 678.63,646.95" fill="#946719" stroke="#000000" stroke-width="1" stroke-linejoin="round"/>
<polygon points="1273.26,648.95 1281.98,558.81 1207.16,569.13 1200.44,660.66" fill="#e3a02b" stroke="#000000" stroke-width="1" stroke-linejoin="round"/>
<polygon points="761.33,376.78 784.84,287.91 723.33,283.61 692.96,370.35" fill="#3b2705" stroke="#000000" stroke-width="1" stroke-linejoin="round"/>
<polygon points="844.71,750.20 834.28,667.90 750.13,659.12 766.51,741.01" fill="#b98221" stroke="#000000" stroke-width="1" stroke-linejoin="round"/>
<polygon points="1259.84,371.40 1230.08,284.31 1167.52,288.45 1190.24,377.60" fill="#b47e20" stroke="#000000" stroke-width="1" stroke-linejoin="round"/>
<polygon points="1184.22,742.62 1200.44,660.66 1115.29,668.87 1105.12,751.21" fill="#e6a32c" stroke="#000000" stroke-width="1" stroke-linejoin="round"/>
<polygon points="856.63,291.00 876.65,211.81 816.26,209.99 784.84,287.91" fill="#3f2a05" stroke="#000000" stroke-width="1" stroke-linejoin="round"/>
<polygon points="743.49,567.77 747.25,471.86 674.85,463.17 670.04,557.06" fill="#815914" stroke="#000000" stroke-width="1" stroke-linejoin="round"/>
<polygon points="1167.52,288.45 1137.07,210.31 1076.07,212.01 1094.95,291.34" fill="#956819" stroke="#000000" stroke-width="1" stroke-linejoin="round"/>
<polygon points="747.25,471.86 761.33,376.78 692.96,370.35 674.85,463.17" fill="#66460e" stroke="#000000" stroke-width="1" stroke-linejoin="round"/>
<polygon points="1281.98,558.81 1277.48,464.59 1203.74,472.96 1207.16,569.13" fill="#d89829" stroke="#000000" stroke-width="1" stroke-linejoin="round"/>
<polygon points="1277.48,464.59 1259.84,371.40 1190.24,377.60 1203.74,472.96" fill="#c98d25" stroke="#000000" stroke-width="1" stroke-linejoin="round"/>
<polygon points="935.11,292.66 942.37,212.79 876.65,211.81 856.63,291.00" fill="#67460e" stroke="#000000" stroke-width="1" stroke-linejoin="round"/>
<polygon points="930.44,755.15 926.75,672.63 834.28,667.90 844.71,750.20" fill="#ca8e25" stroke="#000000" stroke-width="1" stroke-linejoin="round"/>
<polygon points="1094.95,291.34 1076.07,212.01 1010.03,212.86 1016.05,292.78" fill="#8c6117" stroke="#000000" stroke-width="1" stroke-linejoin="round"/>
<polygon points="1105.12,751.21 1115.29,668.87 1022.29,672.97 1018.92,755.49" fill="#e09e2b" stroke="#000000" stroke-width="1" stroke-linejoin="round"/>
<polygon points="834.28,667.90 830.08,575.51 743.49,567.77 750.13,659.12" fill="#ae791f" stroke="#000000" stroke-width="1" stroke-linejoin="round"/>
<polygon points="1016.05,292.78 1010.03,212.86 942.37,212.79 935.11,292.66" fill="#7e5713" stroke="#000000" stroke-width="1" stroke-linejoin="round"/>
<polygon points="1018.92,755.49 1022.29,672.97 926.75,672.63 930.44,755.15" fill="#d79729" stroke="#000000" stroke-width="1" stroke-linejoin="round"/>
<polygon points="841.58,381.42 856.63,291.00 784.84,287.91 761.33,376.78" fill="#6d4b0f" stroke="#000000" stroke-width="1" stroke-linejoin="round"/>
<polygon points="1200.44,660.66 1207.16,569.13 1119.54,576.37 1115.29,668.87" fill="#e09e2b" stroke="#000000" stroke-width="1" stroke-linejoin="round"/>
<polygon points="1190.24,377.60 1167.52,288.45 1094.95,291.34 1109.07,381.93" fill="#b17c1f" stroke="#000000" stroke-width="1" stroke-linejoin="round"/>
<polygon points="830.08,575.51 832.54,478.13 747.25,471.86 743.49,567.77" fill="#9e6e1b" stroke="#000000" stroke-width="1" stroke-linejoin="round"/>
<polygon points="832.54,478.13 841.58,381.42 761.33,376.78 747.25,471.86" fill="#895f16" stroke="#000000" stroke-width="1" stroke-linejoin="round"/>
<polygon points="1207.16,569.13 1203.74,472.96 1117.45,478.83 1119.54,576.37" fill="#d59628" stroke="#000000" stroke-width="1" stroke-linejoin="round"/>
<polygon points="1203.74,472.96 1190.24,377.60 1109.07,381.93 1117.45,478.83" fill="#c58b24" stroke="#000000" stroke-width="1" stroke-linejoin="round"/>
<polygon points="929.63,383.92 935.11,292.66 856.63,291.00 841.58,381.42" fill="#895f16" stroke="#000000" stroke-width="1" stroke-linejoin="round"/>
<polygon points="926.75,672.63 925.32,579.69 830.08,575.51 834.28,667.90" fill="#c18723" stroke="#000000" stroke-width="1" stroke-linejoin="round"/>
<polygon points="1109.07,381.93 1094.95,291.34 1016.05,292.78 1020.54,384.10" fill="#a9761e" stroke="#000000" stroke-width="1" stroke-linejoin="round"/>
<polygon points="1115.29,668.87 1119.54,576.37 1023.75,579.98 1022.29,672.97" fill="#d99929" stroke="#000000" stroke-width="1" stroke-linejoin="round"/>
<polygon points="1020.54,384.10 1016.05,292.78 935.11,292.66 929.63,383.92" fill="#9c6d1b" stroke="#000000" stroke-width="1" stroke-linejoin="round"/>
<polygon points="1022.29,672.97 1023.75,579.98 925.32,579.69 926.75,672.63" fill="#cf9227" stroke="#000000" stroke-width="1" stroke-linejoin="round"/>
<polygon points="926.29,481.52 929.63,383.92 841.58,381.42 832.54,478.13" fill="#a1711c" stroke="#000000" stroke-width="1" stroke-linejoin="round"/>
<polygon points="925.32,579.69 926.29,481.52 832.54,478.13 830.08,575.51" fill="#b37e20" stroke="#000000" stroke-width="1" stroke-linejoin="round"/>
<polygon points="1117.45,478.83 1109.07,381.93 1020.54,384.10 1023.16,481.76" fill="#be8523" stroke="#000000" stroke-width="1" stroke-linejoin="round"/>
<polygon points="1119.54,576.37 1117.45,478.83 1023.16,481.76 1023.75,579.98" fill="#ce9126" stroke="#000000" stroke-width="1" stroke-linejoin="round"/>
<polygon points="1023.16,481.76 1020.54,384.10 929.63,383.92 926.29,481.52" fill="#b27d20" stroke="#000000" stroke-width="1" stroke-linejoin="round"/>
<polygon points="1023.75,579.98 1023.16,481.76 926.29,481.52 925.32,579.69" fill="#c38924" stroke="#000000" stroke-width="1" stroke-linejoin="round"/>
<polygon points="870.81,572.95 924.92,735.07 1462.81,446.88 1819.87,48.03" fill="#000538" stroke="#000000" stroke-width="1" stroke-linejoin="round"/>
<polygon points="924.92,735.07 948.87,756.33 1479.08,473.87 1462.81,446.88" fill="#062fe8" stroke="#000000" stroke-width="1" stroke-linejoin="round"/>
<polygon points="1819.87,48.03 1462.81,446.88 1479.08,473.87 1830.17,81.19" fill="#0630eb" stroke="#000000" stroke-width="1" stroke-linejoin="round"/>
<polygon points="920.66,290.71 875.28,288.23 513.42,348.33 565.08,352.08" fill="#380009" stroke="#000000" stroke-width="1" stroke-linejoin="round"/>
<polygon points="921.23,493.37 920.66,290.71 565.08,352.08 158.18,725.39" fill="#d6003b" stroke="#000000" stroke-width="1" stroke-linejoin="round"/>
<polygon points="158.18,725.39 565.08,352.08 513.42,348.33 102.03,715.81" fill="#380009" stroke="#000000" stroke-width="1" stroke-linejoin="round"/>
</svg>